<?xml version="1.0" encoding="utf-8"?>
<svg width="30px" height="30px" fill="none" xmlns="http://www.w3.org/2000/svg" xmlns:bx="https://boxy-svg.com" preserveAspectRatio="none" viewBox="-67.409 -14.145 29.279 28.92"><defs><bx:export><bx:file format="svg" path="U closed yello.svg"/></bx:export></defs><path d="M -61.301 -5.22 C -61.301 -6.462 -60.294 -7.47 -59.051 -7.47 L -55.103 -7.47 C -54.592 -7.47 -54.097 -7.296 -53.698 -6.977 L -52.841 -6.291 C -52.176 -5.76 -51.35 -5.47 -50.499 -5.47 L -47.051 -5.47 C -45.808 -5.47 -44.801 -4.462 -44.801 -3.22 L -44.801 0.78 C -44.801 2.023 -45.808 3.03 -47.051 3.03 L -59.051 3.03 C -60.294 3.03 -61.301 2.023 -61.301 0.78 L -61.301 -5.22 Z" style="stroke-width: 1.25px; stroke: rgb(149, 92, 0); fill: rgb(202, 174, 128);"/><rect x="-61.301" y="-3.768" width="16.5" height="12.798" rx="2.25" style="stroke-width: 1.25px; stroke: rgb(149, 92, 0); fill: rgb(254, 236, 208);"/><path d="M 61.631 -17.472 C 61.631 -18.55 62.505 -19.424 63.583 -19.424 L 68.463 -19.424 L 70.415 -17.472 L 75.295 -17.472 C 76.373 -17.472 77.247 -16.598 77.247 -15.52 L 77.247 -5.76 C 77.247 -4.682 76.373 -3.808 75.295 -3.808 L 63.583 -3.808 C 62.505 -3.808 61.631 -4.682 61.631 -5.76 L 61.631 -17.472 Z" fill="#0069CC"/><path d="M 61.631 -17.472 C 61.631 -18.55 62.505 -19.424 63.583 -19.424 L 68.463 -19.424 L 70.415 -17.472 L 75.295 -17.472 C 76.373 -17.472 77.247 -16.598 77.247 -15.52 L 77.247 -5.76 C 77.247 -4.682 76.373 -3.808 75.295 -3.808 L 63.583 -3.808 C 62.505 -3.808 61.631 -4.682 61.631 -5.76 L 61.631 -17.472 Z" fill="white" fill-opacity="0.5"/><path d="M 61.631 -17.472 C 61.631 -18.55 62.505 -19.424 63.583 -19.424 L 68.463 -19.424 L 70.415 -17.472 L 75.295 -17.472 C 76.373 -17.472 77.247 -16.598 77.247 -15.52 L 77.247 -5.76 C 77.247 -4.682 76.373 -3.808 75.295 -3.808 L 63.583 -3.808 C 62.505 -3.808 61.631 -4.682 61.631 -5.76 L 61.631 -17.472 Z" stroke="#0069CC" stroke-width="1.5"/><path d="M 61.631 -12.592 C 61.631 -13.67 62.505 -14.544 63.583 -14.544 L 75.295 -14.544 C 76.373 -14.544 77.247 -13.67 77.247 -12.592 L 77.247 -5.76 C 77.247 -4.682 76.373 -3.808 75.295 -3.808 L 63.583 -3.808 C 62.505 -3.808 61.631 -4.682 61.631 -5.76 L 61.631 -12.592 Z" fill="#F2F9FF" stroke="#0069CC" stroke-width="1.5"/><path d="M 62.784 -41.881 C 62.784 -42.959 63.658 -43.833 64.736 -43.833 L 69.616 -43.833 L 71.568 -41.881 L 76.448 -41.881 C 77.526 -41.881 78.4 -41.007 78.4 -39.929 L 78.4 -30.169 C 78.4 -29.091 77.526 -28.217 76.448 -28.217 L 64.736 -28.217 C 63.658 -28.217 62.784 -29.091 62.784 -30.169 L 62.784 -41.881 Z" fill="#5E6A77"/><path d="M 62.784 -41.881 C 62.784 -42.959 63.658 -43.833 64.736 -43.833 L 69.616 -43.833 L 71.568 -41.881 L 76.448 -41.881 C 77.526 -41.881 78.4 -41.007 78.4 -39.929 L 78.4 -30.169 C 78.4 -29.091 77.526 -28.217 76.448 -28.217 L 64.736 -28.217 C 63.658 -28.217 62.784 -29.091 62.784 -30.169 L 62.784 -41.881 Z" fill="white" fill-opacity="0.5"/><path d="M 62.784 -41.881 C 62.784 -42.959 63.658 -43.833 64.736 -43.833 L 69.616 -43.833 L 71.568 -41.881 L 76.448 -41.881 C 77.526 -41.881 78.4 -41.007 78.4 -39.929 L 78.4 -30.169 C 78.4 -29.091 77.526 -28.217 76.448 -28.217 L 64.736 -28.217 C 63.658 -28.217 62.784 -29.091 62.784 -30.169 L 62.784 -41.881 Z" stroke="#5E6A77" stroke-width="1.5"/><path d="M 62.784 -37.001 C 62.784 -38.079 63.658 -38.953 64.736 -38.953 L 76.448 -38.953 C 77.526 -38.953 78.4 -38.079 78.4 -37.001 L 78.4 -30.169 C 78.4 -29.091 77.526 -28.217 76.448 -28.217 L 64.736 -28.217 C 63.658 -28.217 62.784 -29.091 62.784 -30.169 L 62.784 -37.001 Z" fill="#F2F9FF" stroke="#5E6A77" stroke-width="1.5"/><path d="M 64.13 8.474 C 64.13 7.396 65.004 6.522 66.082 6.522 L 70.962 6.522 L 72.914 8.474 L 77.794 8.474 C 78.872 8.474 79.746 9.348 79.746 10.426 L 79.746 20.186 C 79.746 21.264 78.872 22.138 77.794 22.138 L 66.082 22.138 C 65.004 22.138 64.13 21.264 64.13 20.186 L 64.13 8.474 Z" fill="#477A00"/><path d="M 64.13 8.474 C 64.13 7.396 65.004 6.522 66.082 6.522 L 70.962 6.522 L 72.914 8.474 L 77.794 8.474 C 78.872 8.474 79.746 9.348 79.746 10.426 L 79.746 20.186 C 79.746 21.264 78.872 22.138 77.794 22.138 L 66.082 22.138 C 65.004 22.138 64.13 21.264 64.13 20.186 L 64.13 8.474 Z" fill="white" fill-opacity="0.5"/><path d="M 64.13 8.474 C 64.13 7.396 65.004 6.522 66.082 6.522 L 70.962 6.522 L 72.914 8.474 L 77.794 8.474 C 78.872 8.474 79.746 9.348 79.746 10.426 L 79.746 20.186 C 79.746 21.264 78.872 22.138 77.794 22.138 L 66.082 22.138 C 65.004 22.138 64.13 21.264 64.13 20.186 L 64.13 8.474 Z" stroke="#477A00" stroke-width="1.5"/><path d="M 64.13 13.354 C 64.13 12.276 65.004 11.402 66.082 11.402 L 77.794 11.402 C 78.872 11.402 79.746 12.276 79.746 13.354 L 79.746 20.186 C 79.746 21.264 78.872 22.138 77.794 22.138 L 66.082 22.138 C 65.004 22.138 64.13 21.264 64.13 20.186 L 64.13 13.354 Z" fill="#F4FBF2" stroke="#477A00" stroke-width="1.5"/><path d="M 65.475 38.841 C 65.475 37.763 66.349 36.889 67.427 36.889 L 72.307 36.889 L 74.259 38.841 L 79.139 38.841 C 80.217 38.841 81.091 39.715 81.091 40.793 L 81.091 50.553 C 81.091 51.631 80.217 52.505 79.139 52.505 L 67.427 52.505 C 66.349 52.505 65.475 51.631 65.475 50.553 L 65.475 38.841 Z" fill="#B14200"/><path d="M 65.475 38.841 C 65.475 37.763 66.349 36.889 67.427 36.889 L 72.307 36.889 L 74.259 38.841 L 79.139 38.841 C 80.217 38.841 81.091 39.715 81.091 40.793 L 81.091 50.553 C 81.091 51.631 80.217 52.505 79.139 52.505 L 67.427 52.505 C 66.349 52.505 65.475 51.631 65.475 50.553 L 65.475 38.841 Z" fill="white" fill-opacity="0.5"/><path d="M 65.475 38.841 C 65.475 37.763 66.349 36.889 67.427 36.889 L 72.307 36.889 L 74.259 38.841 L 79.139 38.841 C 80.217 38.841 81.091 39.715 81.091 40.793 L 81.091 50.553 C 81.091 51.631 80.217 52.505 79.139 52.505 L 67.427 52.505 C 66.349 52.505 65.475 51.631 65.475 50.553 L 65.475 38.841 Z" stroke="#B14200" stroke-width="1.5"/><path d="M 65.475 43.721 C 65.475 42.643 66.349 41.769 67.427 41.769 L 79.139 41.769 C 80.217 41.769 81.091 42.643 81.091 43.721 L 81.091 50.553 C 81.091 51.631 80.217 52.505 79.139 52.505 L 67.427 52.505 C 66.349 52.505 65.475 51.631 65.475 50.553 L 65.475 43.721 Z" fill="#FFF6F1" stroke="#B14200" stroke-width="1.5"/><path d="M 36.838 -43.034 C 36.838 -44.112 37.712 -44.986 38.79 -44.986 L 43.67 -44.986 L 45.622 -43.034 L 50.502 -43.034 C 51.58 -43.034 52.454 -42.16 52.454 -41.082 L 52.454 -31.322 C 52.454 -30.244 51.58 -29.37 50.502 -29.37 L 38.79 -29.37 C 37.712 -29.37 36.838 -30.244 36.838 -31.322 L 36.838 -43.034 Z" fill="#BB1562"/><path d="M 36.838 -43.034 C 36.838 -44.112 37.712 -44.986 38.79 -44.986 L 43.67 -44.986 L 45.622 -43.034 L 50.502 -43.034 C 51.58 -43.034 52.454 -42.16 52.454 -41.082 L 52.454 -31.322 C 52.454 -30.244 51.58 -29.37 50.502 -29.37 L 38.79 -29.37 C 37.712 -29.37 36.838 -30.244 36.838 -31.322 L 36.838 -43.034 Z" fill="white" fill-opacity="0.5"/><path d="M 36.838 -43.034 C 36.838 -44.112 37.712 -44.986 38.79 -44.986 L 43.67 -44.986 L 45.622 -43.034 L 50.502 -43.034 C 51.58 -43.034 52.454 -42.16 52.454 -41.082 L 52.454 -31.322 C 52.454 -30.244 51.58 -29.37 50.502 -29.37 L 38.79 -29.37 C 37.712 -29.37 36.838 -30.244 36.838 -31.322 L 36.838 -43.034 Z" stroke="#BB1562" stroke-width="1.5"/><path d="M 36.838 -38.154 C 36.838 -39.232 37.712 -40.106 38.79 -40.106 L 50.502 -40.106 C 51.58 -40.106 52.454 -39.232 52.454 -38.154 L 52.454 -31.322 C 52.454 -30.244 51.58 -29.37 50.502 -29.37 L 38.79 -29.37 C 37.712 -29.37 36.838 -30.244 36.838 -31.322 L 36.838 -38.154 Z" stroke="#BB1562" stroke-width="1.5" style="fill: rgb(186, 21, 97);"/><path d="M 36.069 -17.472 C 36.069 -18.55 36.943 -19.424 38.021 -19.424 L 42.901 -19.424 L 44.853 -17.472 L 49.733 -17.472 C 50.811 -17.472 51.685 -16.598 51.685 -15.52 L 51.685 -5.76 C 51.685 -4.682 50.811 -3.808 49.733 -3.808 L 38.021 -3.808 C 36.943 -3.808 36.069 -4.682 36.069 -5.76 L 36.069 -17.472 Z" fill="#955C00"/><path d="M 36.069 -17.472 C 36.069 -18.55 36.943 -19.424 38.021 -19.424 L 42.901 -19.424 L 44.853 -17.472 L 49.733 -17.472 C 50.811 -17.472 51.685 -16.598 51.685 -15.52 L 51.685 -5.76 C 51.685 -4.682 50.811 -3.808 49.733 -3.808 L 38.021 -3.808 C 36.943 -3.808 36.069 -4.682 36.069 -5.76 L 36.069 -17.472 Z" fill="white" fill-opacity="0.5"/><path d="M 36.069 -17.472 C 36.069 -18.55 36.943 -19.424 38.021 -19.424 L 42.901 -19.424 L 44.853 -17.472 L 49.733 -17.472 C 50.811 -17.472 51.685 -16.598 51.685 -15.52 L 51.685 -5.76 C 51.685 -4.682 50.811 -3.808 49.733 -3.808 L 38.021 -3.808 C 36.943 -3.808 36.069 -4.682 36.069 -5.76 L 36.069 -17.472 Z" stroke="#955C00" stroke-width="1.5"/><path d="M 36.069 -12.592 C 36.069 -13.67 36.943 -14.544 38.021 -14.544 L 49.733 -14.544 C 50.811 -14.544 51.685 -13.67 51.685 -12.592 L 51.685 -5.76 C 51.685 -4.682 50.811 -3.808 49.733 -3.808 L 38.021 -3.808 C 36.943 -3.808 36.069 -4.682 36.069 -5.76 L 36.069 -12.592 Z" fill="#FCF8EF" stroke="#955C00" stroke-width="1.5"/><path d="M 34.916 10.396 C 34.916 9.318 35.79 8.444 36.868 8.444 L 41.748 8.444 L 43.7 10.396 L 48.58 10.396 C 49.658 10.396 50.532 11.27 50.532 12.348 L 50.532 22.108 C 50.532 23.186 49.658 24.06 48.58 24.06 L 36.868 24.06 C 35.79 24.06 34.916 23.186 34.916 22.108 L 34.916 10.396 Z" fill="#C21725"/><path d="M 34.916 10.396 C 34.916 9.318 35.79 8.444 36.868 8.444 L 41.748 8.444 L 43.7 10.396 L 48.58 10.396 C 49.658 10.396 50.532 11.27 50.532 12.348 L 50.532 22.108 C 50.532 23.186 49.658 24.06 48.58 24.06 L 36.868 24.06 C 35.79 24.06 34.916 23.186 34.916 22.108 L 34.916 10.396 Z" fill="white" fill-opacity="0.5"/><path d="M 34.916 10.396 C 34.916 9.318 35.79 8.444 36.868 8.444 L 41.748 8.444 L 43.7 10.396 L 48.58 10.396 C 49.658 10.396 50.532 11.27 50.532 12.348 L 50.532 22.108 C 50.532 23.186 49.658 24.06 48.58 24.06 L 36.868 24.06 C 35.79 24.06 34.916 23.186 34.916 22.108 L 34.916 10.396 Z" stroke="#C21725" stroke-width="1.5"/><path d="M 34.916 15.276 C 34.916 14.198 35.79 13.324 36.868 13.324 L 48.58 13.324 C 49.658 13.324 50.532 14.198 50.532 15.276 L 50.532 22.108 C 50.532 23.186 49.658 24.06 48.58 24.06 L 36.868 24.06 C 35.79 24.06 34.916 23.186 34.916 22.108 L 34.916 15.276 Z" fill="#FFF5F5" stroke="#C21725" stroke-width="1.5"/><path d="M 35.685 41.34 C 35.685 40.262 36.559 39.388 37.637 39.388 L 42.517 39.388 L 44.469 41.34 L 49.349 41.34 C 50.427 41.34 51.301 42.214 51.301 43.292 L 51.301 53.052 C 51.301 54.13 50.427 55.004 49.349 55.004 L 37.637 55.004 C 36.559 55.004 35.685 54.13 35.685 53.052 L 35.685 41.34 Z" fill="#8C39BC"/><path d="M 35.685 41.34 C 35.685 40.262 36.559 39.388 37.637 39.388 L 42.517 39.388 L 44.469 41.34 L 49.349 41.34 C 50.427 41.34 51.301 42.214 51.301 43.292 L 51.301 53.052 C 51.301 54.13 50.427 55.004 49.349 55.004 L 37.637 55.004 C 36.559 55.004 35.685 54.13 35.685 53.052 L 35.685 41.34 Z" fill="white" fill-opacity="0.5"/><path d="M 35.685 41.34 C 35.685 40.262 36.559 39.388 37.637 39.388 L 42.517 39.388 L 44.469 41.34 L 49.349 41.34 C 50.427 41.34 51.301 42.214 51.301 43.292 L 51.301 53.052 C 51.301 54.13 50.427 55.004 49.349 55.004 L 37.637 55.004 C 36.559 55.004 35.685 54.13 35.685 53.052 L 35.685 41.34 Z" stroke="#8C39BC" stroke-width="1.5"/><path d="M 35.685 46.22 C 35.685 45.142 36.559 44.268 37.637 44.268 L 49.349 44.268 C 50.427 44.268 51.301 45.142 51.301 46.22 L 51.301 53.052 C 51.301 54.13 50.427 55.004 49.349 55.004 L 37.637 55.004 C 36.559 55.004 35.685 54.13 35.685 53.052 L 35.685 46.22 Z" fill="#FBF6FF" stroke="#8C39BC" stroke-width="1.5"/></svg>