<?xml version="1.0" encoding="utf-8"?>
<svg width="30px" height="30px" fill="none" xmlns="http://www.w3.org/2000/svg" xmlns:bx="https://boxy-svg.com" preserveAspectRatio="none" viewBox="-116.945 -182.801 157.734 144.737"><defs><bx:export><bx:file format="svg" href="#object-0" path="Untitled 2.svg"/><bx:file format="svg" href="#object-1" path="Untitled 3.svg"/><bx:file format="svg" href="#object-2" path="Untitled 4.svg"/><bx:file format="svg" href="#object-3" path="Untitled 5.svg"/><bx:file format="svg" href="#object-4" path="Untitled 6.svg"/><bx:file format="svg" href="#object-5" path="Untitled 7.svg"/></bx:export><linearGradient id="paint1_linear_204_3644" x1="12.5" y1="4.99404" x2="12.5" y2="17" gradientUnits="userSpaceOnUse" gradientTransform="matrix(3.830975, 0, 0, 4.445762, 90.980301, -126.102911)"><stop stop-color="#007B7C" stop-opacity="0"/><stop offset="1" stop-color="#007B7C"/></linearGradient><linearGradient id="gradient-1" x1="13.5" y1="5.3125" x2="13.5" y2="17" gradientUnits="userSpaceOnUse" gradientTransform="matrix(3.047457, -0.188308, 0.354788, 3.639568, -88.182806, -130.853877)"><stop stop-opacity="0"/><stop offset="1"/></linearGradient><bx:export><bx:file format="svg" path="u open  green.svg"/></bx:export><linearGradient id="paint0_linear_204_3644" x1="13.5" y1="5.3125" x2="13.5" y2="17" gradientUnits="userSpaceOnUse" gradientTransform="matrix(5.2578, 0, 0, 5.2578, 344.86716, -136.220445)"><stop stop-opacity="0"/><stop offset="1"/></linearGradient><linearGradient id="gradient-2" x1="12.5" y1="4.99404" x2="12.5" y2="17" gradientUnits="userSpaceOnUse" gradientTransform="matrix(4.009675, -0.188341, 0.000001, 4.159468, 103.812763, -197.537534)"><stop stop-color="#C21725" stop-opacity="0"/><stop offset="1" stop-color="#C21725"/></linearGradient><linearGradient id="gradient-3" x1="13.5" y1="5.3125" x2="13.5" y2="17" gradientUnits="userSpaceOnUse" gradientTransform="matrix(5.2578, 0, 0, 5.2578, 378.769076, 38.406521)"><stop stop-opacity="0"/><stop offset="1"/></linearGradient><linearGradient id="gradient-4" x1="12.5" y1="4.99404" x2="12.5" y2="17" gradientUnits="userSpaceOnUse" gradientTransform="matrix(4.039583, 0, 0, 4.211227, 64.991097, 27.649048)"><stop stop-color="#8C39BC" stop-opacity="0"/><stop offset="1" stop-color="#8C39BC"/></linearGradient><linearGradient id="gradient-5" x1="13.5" y1="5.3125" x2="13.5" y2="17" gradientUnits="userSpaceOnUse" gradientTransform="matrix(5.2578, 0, 0, 5.2578, 245.080378, -221.295114)"><stop stop-opacity="0"/><stop offset="1"/></linearGradient><linearGradient id="gradient-6" x1="12.5" y1="4.99404" x2="12.5" y2="17" gradientUnits="userSpaceOnUse" gradientTransform="matrix(5.2578, 0, 0, 5.2578, 245.080378, -221.295114)"><stop stop-color="#955C00" stop-opacity="0"/><stop offset="1" stop-color="#955C00"/></linearGradient><linearGradient id="gradient-7" x1="13.5" y1="5.3125" x2="13.5" y2="17" gradientUnits="userSpaceOnUse" gradientTransform="matrix(5.2578, 0, 0, 5.2578, 481.754261, -78.011426)"><stop stop-opacity="0"/><stop offset="1"/></linearGradient><linearGradient id="gradient-8" x1="12.5" y1="4.99404" x2="12.5" y2="17" gradientUnits="userSpaceOnUse" gradientTransform="matrix(5.2578, 0, 0, 5.2578, 481.754261, -78.011426)"><stop stop-color="#BB1562" stop-opacity="0"/><stop offset="1" stop-color="#BB1562"/></linearGradient><linearGradient id="gradient-9" x1="13.5" y1="5.3125" x2="13.5" y2="17" gradientUnits="userSpaceOnUse" gradientTransform="matrix(5.2578, 0, 0, 5.2578, 420.346957, -215.538126)"><stop stop-opacity="0"/><stop offset="1"/></linearGradient><linearGradient id="gradient-10" x1="12.5" y1="4.99404" x2="12.5" y2="17" gradientUnits="userSpaceOnUse" gradientTransform="matrix(4.07718, 0, 0, 4.46326, 51.766366, 88.228685)"><stop stop-color="#B14200" stop-opacity="0"/><stop offset="1" stop-color="#B14200"/></linearGradient><linearGradient id="gradient-11" x1="13.5" y1="5.3125" x2="13.5" y2="17" gradientUnits="userSpaceOnUse" gradientTransform="matrix(5.2578, 0, 0, 5.2578, 424.184863, 194.483362)"><stop stop-opacity="0"/><stop offset="1"/></linearGradient><linearGradient id="gradient-12" x1="12.5" y1="4.99404" x2="12.5" y2="17" gradientUnits="userSpaceOnUse" gradientTransform="matrix(3.903841, 0, 0, 4.437765, -84.46235, -146.367155)"><stop stop-color="#477A00" stop-opacity="0"/><stop offset="1" stop-color="#477A00"/></linearGradient><linearGradient id="gradient-13" x1="13.5" y1="5.3125" x2="13.5" y2="17" gradientUnits="userSpaceOnUse" gradientTransform="matrix(5.2578, 0, 0, 5.2578, 285.378855, 183.609125)"><stop stop-opacity="0"/><stop offset="1"/></linearGradient><linearGradient id="gradient-14" x1="12.5" y1="4.99404" x2="12.5" y2="17" gradientUnits="userSpaceOnUse" gradientTransform="matrix(3.807587, 0.269754, -1.303055, 4.117758, 97.225053, -51.719155)"><stop stop-color="#0069CC" stop-opacity="0"/><stop offset="1" stop-color="#0069CC"/></linearGradient><linearGradient id="gradient-15" x1="13.5" y1="5.3125" x2="13.5" y2="17" gradientUnits="userSpaceOnUse" gradientTransform="matrix(5.2578, 0, 0, 5.2578, 216.935354, 30.091007)"><stop stop-opacity="0"/><stop offset="1"/></linearGradient><linearGradient id="gradient-16" x1="12.5" y1="4.99404" x2="12.5" y2="17" gradientUnits="userSpaceOnUse" gradientTransform="matrix(5.2578, 0, 0, 5.2578, 216.935354, 30.091007)"><stop stop-color="#5E6A77" stop-opacity="0"/><stop offset="1" stop-color="#5E6A77"/></linearGradient></defs><path d="M 107.894 44.159 C 107.894 43.919 108.081 43.719 108.309 43.719 L 110.803 43.719 C 111.032 43.719 111.216 43.919 111.216 44.159 L 111.216 45.699 C 111.216 45.939 111.032 46.149 110.803 46.149 L 108.309 46.149 C 108.081 46.149 107.894 45.939 107.894 45.699 L 107.894 44.159 Z" fill="#EFFBFC" stroke="#007B7C" style="visibility: hidden; stroke-width: 6px;"/><path d="M -76.086 -118.83 C -76.086 -119.07 -75.926 -119.27 -75.726 -119.29 L -74.786 -119.31 L -74.406 -118.87 L -73.466 -118.91 C -73.256 -118.92 -73.086 -118.78 -73.076 -118.52 L -72.996 -116.51 C -72.996 -116.28 -73.156 -116.07 -73.366 -116.07 L -75.616 -116.01 C -75.806 -116.01 -75.986 -116.19 -75.996 -116.42 L -76.086 -118.83 Z" fill="#007B7C" style="visibility: hidden; transform-origin: -51.811px -102.408px;" id="object-0" transform="matrix(0.998503, -0.054702, 0.054702, 0.998503, 0, 0.000001)"/><path d="M -76.126 -118.83 C -76.126 -119.06 -75.976 -119.23 -75.766 -119.24 L -74.826 -119.28 L -74.436 -118.88 L -73.516 -118.9 C -73.296 -118.9 -73.126 -118.74 -73.126 -118.5 L -73.036 -116.47 C -73.036 -116.27 -73.196 -116.08 -73.416 -116.06 L -75.646 -116.01 C -75.846 -116 -76.026 -116.18 -76.026 -116.38 L -76.126 -118.83 Z" fill="white" fill-opacity="0.5" style="visibility: hidden; transform-origin: -51.811px -102.408px;" id="object-1" transform="matrix(0.998503, -0.054702, 0.054702, 0.998503, 0, 0.000001)"/><a style="transform-origin: -88.236px -53.876px;" transform="matrix(3.449558, 0.109708, 0.955469, 3.465796, 37.112298, -46.039979)" id="object-2"><path d="M -96.733 -60.008 C -96.733 -61.113 -95.838 -62.008 -94.733 -62.008 L -89.733 -62.008 L -87.596 -60.339 L -82.381 -60.612 C -80.417 -61.627 -79.615 -59.934 -80.198 -58.273 L -80.148 -48.06 C -80.148 -46.955 -81.629 -46.008 -82.733 -46.008 L -94.946 -45.781 C -96.478 -45.277 -96.921 -46.639 -96.819 -47.865 L -96.733 -60.008 Z" style="stroke-width: 1.13794px; fill: rgb(163, 188, 128);"/><path d="M -96.855 -59.903 C -96.855 -61.008 -95.96 -61.903 -94.855 -61.903 L -89.855 -61.903 L -87.606 -60.532 L -82.415 -60.681 C -81.311 -60.681 -80.344 -61.129 -80.344 -60.024 C -79.399 -60.301 -79.555 -48.031 -79.767 -47.969 C -79.767 -46.864 -81.751 -45.903 -82.855 -45.903 C -82.855 -45.903 -94.407 -45.626 -94.969 -45.83 C -96.556 -45.006 -96.986 -46.507 -96.855 -47.903 L -96.855 -59.903 Z" fill-opacity="0.5" style="stroke-width: 1.13794px; fill: rgb(163, 188, 128);"/><path d="M -96.733 -60.197 C -96.733 -61.316 -95.838 -62.223 -94.733 -62.223 L -89.665 -62.46 L -87.526 -60.941 L -81.286 -61.119 C -80.182 -61.119 -79.168 -57.155 -79.168 -56.036 L -79.617 -48.016 C -79.617 -46.897 -81.629 -46.017 -82.733 -46.017 L -94.702 -45.29 C -95.807 -45.29 -96.928 -45.091 -96.928 -46.211 L -96.733 -60.197 Z" style="stroke-width: 1.13794px; fill: rgb(163, 188, 128); stroke: rgb(71, 122, 0);"/></a><path d="M -81.974 -119.58 C -83.114 -124.01 -81.254 -127.61 -77.444 -127.82 L -64.004 -128.68 C -62.204 -128.79 -60.404 -127.93 -59.084 -126.37 L -58.914 -126.14 C -57.584 -124.57 -55.794 -123.7 -53.974 -123.83 L -40.624 -124.62 C -37.654 -124.82 -30.154 -122.58 -29.314 -119.13 C -29.314 -119.13 -19.674 -80.249 -20.344 -80.229 C -19.894 -79.169 -19.764 -78.249 -19.854 -77.449 C -20.244 -74.559 -23.764 -73.259 -26.874 -73.159 L -58.445 -73.334 C -61.941 -73.654 -74.479 -72.7 -72.875 -75.377 C -73.511 -75.16 -82.281 -119.48 -81.974 -119.58 Z" fill="url(#gradient-1)" style="stroke-linecap: square; stroke-linejoin: bevel; transform-box: fill-box; transform-origin: 50% 50%;" fill-opacity="0.5" id="object-3" transform="matrix(0.998923, -0.046407, 0.046407, 0.998923, 0, 0)"/><a style="transform-origin: 1.211px -39.31px;" transform="matrix(3.941782, -0.003867, -1.347556, 4.429488, 32.229538, -53.517498)" id="object-4"><path d="M -24.48 -43.24 C -24.48 -44.321 -23.585 -45.196 -22.48 -45.196 L -10.48 -45.196 C -9.376 -45.196 -8.48 -44.321 -8.48 -43.24 L -8.48 -36.397 C -8.48 -35.316 -9.376 -34.441 -10.48 -34.441 L -22.48 -34.441 C -23.585 -34.441 -24.48 -35.316 -24.48 -36.397 L -24.48 -43.24 Z" fill="#EFFBFC" style="stroke-width: 0.985927px; stroke: rgb(71, 122, 0);"/><path d="M 13.51 -54.099 C 13.489 -54.155 13.515 -54.2 13.564 -54.204 L 13.805 -54.205 L 13.939 -54.104 L 14.18 -54.11 C 14.233 -54.11 14.289 -54.079 14.313 -54.02 L 14.505 -53.555 C 14.525 -53.504 14.501 -53.457 14.446 -53.457 L 13.872 -53.451 C 13.822 -53.45 13.761 -53.491 13.739 -53.545 L 13.51 -54.099 Z" fill="#007B7C" style="visibility: hidden; transform-origin: 178.222px 43.748px; stroke-width: 0.985927px; stroke: rgb(71, 122, 0);"/><path d="M 13.499 -54.099 C 13.48 -54.152 13.505 -54.191 13.56 -54.192 L 13.797 -54.196 L 13.932 -54.104 L 14.168 -54.108 C 14.223 -54.108 14.282 -54.068 14.305 -54.012 L 14.498 -53.547 C 14.516 -53.501 14.489 -53.459 14.435 -53.456 L 13.864 -53.451 C 13.812 -53.448 13.751 -53.489 13.732 -53.538 L 13.499 -54.099 Z" fill="white" fill-opacity="0.5" style="visibility: hidden; transform-origin: 178.222px 43.748px; stroke-width: 0.985927px; stroke: rgb(71, 122, 0);"/><a style="transform-origin: -88.7501px -53.8804px;" transform="matrix(0.883707, 0.076167, 0.537957, 0.876705, 100.96412, 6.716302)">
    <path d="M -96.733 -60.008 C -96.733 -61.113 -95.838 -62.008 -94.733 -62.008 L -89.733 -62.008 L -87.701 -60.651 L -80.481 -61.159 C -79.377 -61.159 -80.733 -59.113 -80.733 -58.008 L -80.733 -48.008 C -80.733 -46.903 -81.629 -46.008 -82.733 -46.008 L -94.733 -46.008 C -95.838 -46.008 -96.733 -46.903 -96.733 -48.008 L -96.733 -60.008 Z" style="stroke-width: 0.985927px; stroke: rgb(71, 122, 0);" fill="#007B7C"/>
    <path d="M -96.855 -59.903 C -96.855 -61.008 -95.96 -61.903 -94.855 -61.903 L -89.855 -61.903 L -87.513 -61.117 L -80.46 -61.694 C -79.356 -61.694 -80.855 -59.008 -80.855 -57.903 L -80.855 -47.903 C -80.855 -46.798 -81.751 -45.903 -82.855 -45.903 L -94.855 -45.903 C -95.96 -45.903 -96.855 -46.798 -96.855 -47.903 L -96.855 -59.903 Z" fill-opacity="0.5" style="stroke-width: 0.985927px; stroke: rgb(71, 122, 0);" fill="white"/>
    <path d="M -96.733 -60.199 C -96.733 -61.318 -95.838 -62.225 -94.733 -62.225 L -89.665 -62.462 L -87.519 -61.123 L -80.451 -61.665 C -79.347 -61.665 -78.422 -56.835 -78.422 -55.716 L -80.733 -48.043 C -80.733 -46.924 -81.629 -46.017 -82.733 -46.017 L -94.702 -45.29 C -95.807 -45.29 -96.428 -45.563 -96.428 -46.683 L -96.733 -60.199 Z" style="stroke-width: 0.985927px; stroke: rgb(71, 122, 0);"/>
  </a><a style="transform-origin: 1.21099px -39.31px;" transform="matrix(1, 0, 0, 1, 25.500386, -9.823108)">
    <path d="M -7.546 -43.041 C -7.602 -44.241 -6.726 -45.213 -5.587 -45.213 L 6.771 -45.219 C 7.907 -45.219 8.875 -44.247 8.932 -43.047 L 9.29 -35.441 C 9.347 -34.242 8.47 -33.269 7.333 -33.269 L -5.025 -33.263 C -6.164 -33.263 -7.131 -34.236 -7.188 -35.435 L -7.546 -43.041 Z" fill="#EFFBFC" style="stroke-width: 0.985927px; stroke: rgb(71, 122, 0);"/>
  </a></a><path d="M 2.72 -6.264 C 2.72 -7.506 3.727 -8.514 4.97 -8.514 L 8.918 -8.514 C 9.429 -8.514 9.924 -8.34 10.323 -8.021 L 11.18 -7.335 C 11.845 -6.804 12.671 -6.514 13.522 -6.514 L 16.97 -6.514 C 18.213 -6.514 19.22 -5.506 19.22 -4.264 L 19.22 -0.264 C 19.22 0.979 18.213 1.986 16.97 1.986 L 4.97 1.986 C 3.727 1.986 2.72 0.979 2.72 -0.264 L 2.72 -6.264 Z" style="stroke-width: 1.25px; stroke: rgb(0, 123, 124); fill: rgb(128, 189, 190);"/><rect x="2.72" y="-4.812" width="16.5" height="12.798" rx="2.25" style="stroke-width: 1.25px; stroke: rgb(0, 123, 124); fill: rgb(220, 240, 241);"/><path d="M 112.432 -92.884 C 113.336 -96.754 116.369 -99.44 119.816 -99.44 L 165.229 -99.44 C 170.287 -99.44 173.95 -93.874 172.622 -88.204 L 165.314 -57.08 C 164.4 -53.219 161.377 -50.526 157.911 -50.526 L 112.507 -50.526 C 107.459 -50.526 103.786 -56.098 105.114 -61.764 L 112.432 -92.884 Z" fill="url(#paint1_linear_204_3644)" style="fill-opacity: 0.25; transform-origin: 127.847px -80.562px;" id="object-5" transform="matrix(0.998621, 0.052497, -0.052497, 0.998621, -0.000001, -0.000001)"/><path d="M 352.46 -118.51 C 351.247 -124.98 356.212 -130.96 362.796 -130.96 L 385.948 -130.96 C 389.069 -130.96 392.029 -129.58 394.026 -127.18 L 394.293 -126.86 C 396.29 -124.46 399.25 -123.08 402.371 -123.08 L 425.392 -123.08 C 430.511 -123.08 434.885 -119.39 435.755 -114.35 L 445.274 -59.14 C 446.382 -52.713 441.433 -46.838 434.911 -46.838 L 374.626 -46.838 C 369.566 -46.838 365.223 -50.442 364.29 -55.415 L 352.46 -118.51 Z" fill="#C21725"/><path d="M 352.46 -118.51 C 351.247 -124.98 356.212 -130.96 362.796 -130.96 L 385.948 -130.96 C 389.069 -130.96 392.029 -129.58 394.026 -127.18 L 394.293 -126.86 C 396.29 -124.46 399.25 -123.08 402.371 -123.08 L 425.392 -123.08 C 430.511 -123.08 434.885 -119.39 435.755 -114.35 L 445.274 -59.14 C 446.382 -52.713 441.433 -46.838 434.911 -46.838 L 374.626 -46.838 C 369.566 -46.838 365.223 -50.442 364.29 -55.415 L 352.46 -118.51 Z" fill="white" fill-opacity="0.5"/><path d="M 352.46 -118.51 C 351.247 -124.98 356.212 -130.96 362.796 -130.96 L 385.948 -130.96 C 389.069 -130.96 392.029 -129.58 394.026 -127.18 L 394.293 -126.86 C 396.29 -124.46 399.25 -123.08 402.371 -123.08 L 425.392 -123.08 C 430.511 -123.08 434.885 -119.39 435.755 -114.35 L 445.274 -59.14 C 446.382 -52.713 441.433 -46.838 434.911 -46.838 L 374.626 -46.838 C 369.566 -46.838 365.223 -50.442 364.29 -55.415 L 352.46 -118.51 Z" fill="url(#paint0_linear_204_3644)" fill-opacity="0.5"/><path d="M 352.46 -118.51 C 351.247 -124.98 356.212 -130.96 362.796 -130.96 L 385.948 -130.96 C 389.069 -130.96 392.029 -129.58 394.026 -127.18 L 394.293 -126.86 C 396.29 -124.46 399.25 -123.08 402.371 -123.08 L 425.392 -123.08 C 430.511 -123.08 434.885 -119.39 435.755 -114.35 L 445.274 -59.14 C 446.382 -52.713 441.433 -46.838 434.911 -46.838 L 374.626 -46.838 C 369.566 -46.838 365.223 -50.442 364.29 -55.415 L 352.46 -118.51 Z" stroke="#C21725" stroke-width="1.5"/><path d="M 374.301 -96.925 C 375.549 -101.5 379.704 -104.67 384.446 -104.67 L 446.772 -104.67 C 453.705 -104.67 458.741 -98.08 456.917 -91.391 L 446.879 -54.586 C 445.631 -50.011 441.476 -46.838 436.734 -46.838 L 374.409 -46.838 C 367.475 -46.838 362.439 -53.431 364.263 -60.12 L 374.301 -96.925 Z" fill="#FFF5F5"/><path d="M 126.26 -167.5 C 127.211 -171.16 130.381 -173.82 133.996 -173.99 L 181.528 -176.23 C 186.814 -176.47 190.655 -171.43 189.264 -166.08 L 181.609 -136.61 C 180.657 -132.95 177.488 -130.29 173.872 -130.12 L 126.342 -127.89 C 121.054 -127.64 117.214 -132.67 118.605 -138.03 L 126.26 -167.5 Z" fill="url(#gradient-2)" style="fill-opacity: 0.25; transform-box: fill-box; transform-origin: 50% 50%;" transform="matrix(0.997636, 0.068716, -0.068716, 0.997636, 0, 0)"/><path d="M 374.301 -96.925 C 375.549 -101.5 379.704 -104.67 384.446 -104.67 L 446.772 -104.67 C 453.705 -104.67 458.741 -98.08 456.917 -91.391 L 446.879 -54.586 C 445.631 -50.011 441.476 -46.838 436.734 -46.838 L 374.409 -46.838 C 367.475 -46.838 362.439 -53.431 364.263 -60.12 L 374.301 -96.925 Z" stroke="#C21725" stroke-width="1.5"/><path d="M 386.361 56.118 C 385.148 49.647 390.113 43.665 396.697 43.665 L 419.849 43.665 C 422.97 43.665 425.93 45.051 427.927 47.448 L 428.194 47.768 C 430.191 50.165 433.151 51.551 436.272 51.551 L 459.293 51.551 C 464.412 51.551 468.786 55.236 469.656 60.28 L 479.175 115.487 C 480.283 121.914 475.334 127.789 468.812 127.789 L 408.527 127.789 C 403.467 127.789 399.124 124.185 398.191 119.212 L 386.361 56.118 Z" fill="#8C39BC"/><path d="M 386.361 56.118 C 385.148 49.647 390.113 43.665 396.697 43.665 L 419.849 43.665 C 422.97 43.665 425.93 45.051 427.927 47.448 L 428.194 47.768 C 430.191 50.165 433.151 51.551 436.272 51.551 L 459.293 51.551 C 464.412 51.551 468.786 55.236 469.656 60.28 L 479.175 115.487 C 480.283 121.914 475.334 127.789 468.812 127.789 L 408.527 127.789 C 403.467 127.789 399.124 124.185 398.191 119.212 L 386.361 56.118 Z" fill="white" fill-opacity="0.5"/><path d="M 386.361 56.118 C 385.148 49.647 390.113 43.665 396.697 43.665 L 419.849 43.665 C 422.97 43.665 425.93 45.051 427.927 47.448 L 428.194 47.768 C 430.191 50.165 433.151 51.551 436.272 51.551 L 459.293 51.551 C 464.412 51.551 468.786 55.236 469.656 60.28 L 479.175 115.487 C 480.283 121.914 475.334 127.789 468.812 127.789 L 408.527 127.789 C 403.467 127.789 399.124 124.185 398.191 119.212 L 386.361 56.118 Z" fill="url(#gradient-3)" fill-opacity="0.5"/><path d="M 386.361 56.118 C 385.148 49.647 390.113 43.665 396.697 43.665 L 419.849 43.665 C 422.97 43.665 425.93 45.051 427.927 47.448 L 428.194 47.768 C 430.191 50.165 433.151 51.551 436.272 51.551 L 459.293 51.551 C 464.412 51.551 468.786 55.236 469.656 60.28 L 479.175 115.487 C 480.283 121.914 475.334 127.789 468.812 127.789 L 408.527 127.789 C 403.467 127.789 399.124 124.185 398.191 119.212 L 386.361 56.118 Z" stroke="#8C39BC" stroke-width="1.5"/><path d="M 408.202 77.702 C 409.45 73.127 413.605 69.954 418.347 69.954 L 480.673 69.954 C 487.606 69.954 492.642 76.547 490.818 83.236 L 480.78 120.041 C 479.532 124.616 475.377 127.789 470.635 127.789 L 408.31 127.789 C 401.376 127.789 396.34 121.196 398.164 114.507 L 408.202 77.702 Z" fill="#FBF6FF"/><path d="M 87.605 59.127 C 88.564 55.457 91.756 52.917 95.4 52.917 L 143.285 52.917 C 148.611 52.917 150.179 58.657 148.777 64.017 L 141.065 90.732 C 140.106 94.397 139.216 99.24 135.573 99.24 L 87.688 99.24 C 80.762 104.036 77.693 96.353 79.893 88.602 L 87.605 59.127 Z" fill="url(#gradient-4)" style="fill-opacity: 0.25;"/><path d="M 408.202 77.702 C 409.45 73.127 413.605 69.954 418.347 69.954 L 480.673 69.954 C 487.606 69.954 492.642 76.547 490.818 83.236 L 480.78 120.041 C 479.532 124.616 475.377 127.789 470.635 127.789 L 408.31 127.789 C 401.376 127.789 396.34 121.196 398.164 114.507 L 408.202 77.702 Z" stroke="#8C39BC" stroke-width="1.5"/><path d="M 252.673 -203.58 C 251.46 -210.06 256.425 -216.04 263.009 -216.04 L 286.161 -216.04 C 289.282 -216.04 292.242 -214.65 294.239 -212.25 L 294.506 -211.93 C 296.503 -209.54 299.463 -208.15 302.584 -208.15 L 325.605 -208.15 C 330.724 -208.15 335.098 -204.47 335.968 -199.42 L 345.487 -144.22 C 346.595 -137.79 341.646 -131.91 335.124 -131.91 L 274.839 -131.91 C 269.779 -131.91 265.436 -135.52 264.503 -140.49 L 252.673 -203.58 Z" fill="#955C00"/><path d="M 252.673 -203.58 C 251.46 -210.06 256.425 -216.04 263.009 -216.04 L 286.161 -216.04 C 289.282 -216.04 292.242 -214.65 294.239 -212.25 L 294.506 -211.93 C 296.503 -209.54 299.463 -208.15 302.584 -208.15 L 325.605 -208.15 C 330.724 -208.15 335.098 -204.47 335.968 -199.42 L 345.487 -144.22 C 346.595 -137.79 341.646 -131.91 335.124 -131.91 L 274.839 -131.91 C 269.779 -131.91 265.436 -135.52 264.503 -140.49 L 252.673 -203.58 Z" fill="white" fill-opacity="0.5"/><path d="M 252.673 -203.58 C 251.46 -210.06 256.425 -216.04 263.009 -216.04 L 286.161 -216.04 C 289.282 -216.04 292.242 -214.65 294.239 -212.25 L 294.506 -211.93 C 296.503 -209.54 299.463 -208.15 302.584 -208.15 L 325.605 -208.15 C 330.724 -208.15 335.098 -204.47 335.968 -199.42 L 345.487 -144.22 C 346.595 -137.79 341.646 -131.91 335.124 -131.91 L 274.839 -131.91 C 269.779 -131.91 265.436 -135.52 264.503 -140.49 L 252.673 -203.58 Z" fill="url(#gradient-5)" fill-opacity="0.5"/><path d="M 252.673 -203.58 C 251.46 -210.06 256.425 -216.04 263.009 -216.04 L 286.161 -216.04 C 289.282 -216.04 292.242 -214.65 294.239 -212.25 L 294.506 -211.93 C 296.503 -209.54 299.463 -208.15 302.584 -208.15 L 325.605 -208.15 C 330.724 -208.15 335.098 -204.47 335.968 -199.42 L 345.487 -144.22 C 346.595 -137.79 341.646 -131.91 335.124 -131.91 L 274.839 -131.91 C 269.779 -131.91 265.436 -135.52 264.503 -140.49 L 252.673 -203.58 Z" stroke="#955C00" stroke-width="1.5"/><path d="M 274.514 -182 C 275.762 -186.57 279.917 -189.75 284.659 -189.75 L 346.985 -189.75 C 353.918 -189.75 358.954 -183.16 357.13 -176.47 L 347.092 -139.66 C 345.844 -135.09 341.689 -131.91 336.947 -131.91 L 274.622 -131.91 C 267.688 -131.91 262.652 -138.51 264.476 -145.19 L 274.514 -182 Z" fill="#FCF8EF"/><path d="M 274.514 -182 C 275.762 -186.57 279.917 -189.75 284.659 -189.75 L 346.985 -189.75 C 353.918 -189.75 358.954 -183.16 357.13 -176.47 L 347.092 -139.66 C 345.844 -135.09 341.689 -131.91 336.947 -131.91 L 274.622 -131.91 C 267.688 -131.91 262.652 -138.51 264.476 -145.19 L 274.514 -182 Z" fill="url(#gradient-6)" fill-opacity="0.15"/><path d="M 274.514 -182 C 275.762 -186.57 279.917 -189.75 284.659 -189.75 L 346.985 -189.75 C 353.918 -189.75 358.954 -183.16 357.13 -176.47 L 347.092 -139.66 C 345.844 -135.09 341.689 -131.91 336.947 -131.91 L 274.622 -131.91 C 267.688 -131.91 262.652 -138.51 264.476 -145.19 L 274.514 -182 Z" stroke="#955C00" stroke-width="1.5"/><path d="M 489.347 -60.3 C 488.134 -66.771 493.099 -72.753 499.683 -72.753 L 522.835 -72.753 C 525.956 -72.753 528.916 -71.367 530.913 -68.97 L 531.18 -68.65 C 533.177 -66.253 536.137 -64.867 539.258 -64.867 L 562.279 -64.867 C 567.398 -64.867 571.772 -61.182 572.642 -56.138 L 582.161 -0.931 C 583.269 5.496 578.32 11.371 571.798 11.371 L 511.513 11.371 C 506.453 11.371 502.11 7.767 501.177 2.794 L 489.347 -60.3 Z" fill="#BB1562"/><path d="M 489.347 -60.3 C 488.134 -66.771 493.099 -72.753 499.683 -72.753 L 522.835 -72.753 C 525.956 -72.753 528.916 -71.367 530.913 -68.97 L 531.18 -68.65 C 533.177 -66.253 536.137 -64.867 539.258 -64.867 L 562.279 -64.867 C 567.398 -64.867 571.772 -61.182 572.642 -56.138 L 582.161 -0.931 C 583.269 5.496 578.32 11.371 571.798 11.371 L 511.513 11.371 C 506.453 11.371 502.11 7.767 501.177 2.794 L 489.347 -60.3 Z" fill="white" fill-opacity="0.5"/><path d="M 489.347 -60.3 C 488.134 -66.771 493.099 -72.753 499.683 -72.753 L 522.835 -72.753 C 525.956 -72.753 528.916 -71.367 530.913 -68.97 L 531.18 -68.65 C 533.177 -66.253 536.137 -64.867 539.258 -64.867 L 562.279 -64.867 C 567.398 -64.867 571.772 -61.182 572.642 -56.138 L 582.161 -0.931 C 583.269 5.496 578.32 11.371 571.798 11.371 L 511.513 11.371 C 506.453 11.371 502.11 7.767 501.177 2.794 L 489.347 -60.3 Z" fill="url(#gradient-7)" fill-opacity="0.5"/><path d="M 489.347 -60.3 C 488.134 -66.771 493.099 -72.753 499.683 -72.753 L 522.835 -72.753 C 525.956 -72.753 528.916 -71.367 530.913 -68.97 L 531.18 -68.65 C 533.177 -66.253 536.137 -64.867 539.258 -64.867 L 562.279 -64.867 C 567.398 -64.867 571.772 -61.182 572.642 -56.138 L 582.161 -0.931 C 583.269 5.496 578.32 11.371 571.798 11.371 L 511.513 11.371 C 506.453 11.371 502.11 7.767 501.177 2.794 L 489.347 -60.3 Z" stroke="#BB1562" stroke-width="1.5"/><path d="M 511.188 -38.716 C 512.436 -43.291 516.591 -46.464 521.333 -46.464 L 583.659 -46.464 C 590.592 -46.464 595.628 -39.871 593.804 -33.182 L 583.766 3.623 C 582.518 8.198 578.363 11.371 573.621 11.371 L 511.296 11.371 C 504.362 11.371 499.326 4.778 501.15 -1.911 L 511.188 -38.716 Z" fill="#FFF5FB"/><path d="M 511.188 -38.716 C 512.436 -43.291 516.591 -46.464 521.333 -46.464 L 583.659 -46.464 C 590.592 -46.464 595.628 -39.871 593.804 -33.182 L 583.766 3.623 C 582.518 8.198 578.363 11.371 573.621 11.371 L 511.296 11.371 C 504.362 11.371 499.326 4.778 501.15 -1.911 L 511.188 -38.716 Z" fill="url(#gradient-8)" fill-opacity="0.15"/><path d="M 511.188 -38.716 C 512.436 -43.291 516.591 -46.464 521.333 -46.464 L 583.659 -46.464 C 590.592 -46.464 595.628 -39.871 593.804 -33.182 L 583.766 3.623 C 582.518 8.198 578.363 11.371 573.621 11.371 L 511.296 11.371 C 504.362 11.371 499.326 4.778 501.15 -1.911 L 511.188 -38.716 Z" stroke="#BB1562" stroke-width="1.5"/><path d="M 427.939 -197.83 C 426.726 -204.3 431.691 -210.28 438.275 -210.28 L 461.427 -210.28 C 464.548 -210.28 467.508 -208.89 469.505 -206.5 L 469.772 -206.18 C 471.769 -203.78 474.729 -202.39 477.85 -202.39 L 500.871 -202.39 C 505.99 -202.39 510.364 -198.71 511.234 -193.66 L 520.753 -138.46 C 521.861 -132.03 516.912 -126.16 510.39 -126.16 L 450.105 -126.16 C 445.045 -126.16 440.702 -129.76 439.769 -134.73 L 427.939 -197.83 Z" fill="#B14200"/><path d="M 427.939 -197.83 C 426.726 -204.3 431.691 -210.28 438.275 -210.28 L 461.427 -210.28 C 464.548 -210.28 467.508 -208.89 469.505 -206.5 L 469.772 -206.18 C 471.769 -203.78 474.729 -202.39 477.85 -202.39 L 500.871 -202.39 C 505.99 -202.39 510.364 -198.71 511.234 -193.66 L 520.753 -138.46 C 521.861 -132.03 516.912 -126.16 510.39 -126.16 L 450.105 -126.16 C 445.045 -126.16 440.702 -129.76 439.769 -134.73 L 427.939 -197.83 Z" fill="white" fill-opacity="0.5"/><path d="M 427.939 -197.83 C 426.726 -204.3 431.691 -210.28 438.275 -210.28 L 461.427 -210.28 C 464.548 -210.28 467.508 -208.89 469.505 -206.5 L 469.772 -206.18 C 471.769 -203.78 474.729 -202.39 477.85 -202.39 L 500.871 -202.39 C 505.99 -202.39 510.364 -198.71 511.234 -193.66 L 520.753 -138.46 C 521.861 -132.03 516.912 -126.16 510.39 -126.16 L 450.105 -126.16 C 445.045 -126.16 440.702 -129.76 439.769 -134.73 L 427.939 -197.83 Z" fill="url(#gradient-9)" fill-opacity="0.5"/><path d="M 427.939 -197.83 C 426.726 -204.3 431.691 -210.28 438.275 -210.28 L 461.427 -210.28 C 464.548 -210.28 467.508 -208.89 469.505 -206.5 L 469.772 -206.18 C 471.769 -203.78 474.729 -202.39 477.85 -202.39 L 500.871 -202.39 C 505.99 -202.39 510.364 -198.71 511.234 -193.66 L 520.753 -138.46 C 521.861 -132.03 516.912 -126.16 510.39 -126.16 L 450.105 -126.16 C 445.045 -126.16 440.702 -129.76 439.769 -134.73 L 427.939 -197.83 Z" stroke="#B14200" stroke-width="1.5"/><path d="M 449.78 -176.24 C 451.028 -180.82 455.183 -183.99 459.925 -183.99 L 522.251 -183.99 C 529.184 -183.99 534.22 -177.4 532.396 -170.71 L 522.358 -133.9 C 521.11 -129.33 516.955 -126.16 512.213 -126.16 L 449.888 -126.16 C 442.954 -126.16 437.918 -132.75 439.742 -139.44 L 449.78 -176.24 Z" fill="#FFF6F1"/><path d="M 74.589 121.592 C 75.558 117.702 78.779 115.012 82.457 115.012 L 130.787 115.012 C 136.164 115.012 136.573 121.185 135.158 126.865 L 126.209 156.368 C 125.241 160.247 126.68 164.103 123.003 164.103 L 74.674 164.103 C 69.296 164.103 65.391 158.509 66.806 152.83 L 74.589 121.592 Z" fill="url(#gradient-10)" style="fill-opacity: 0.25;"/><path d="M 449.78 -176.24 C 451.028 -180.82 455.183 -183.99 459.925 -183.99 L 522.251 -183.99 C 529.184 -183.99 534.22 -177.4 532.396 -170.71 L 522.358 -133.9 C 521.11 -129.33 516.955 -126.16 512.213 -126.16 L 449.888 -126.16 C 442.954 -126.16 437.918 -132.75 439.742 -139.44 L 449.78 -176.24 Z" stroke="#B14200" stroke-width="1.5"/><path d="M 431.777 212.194 C 430.564 205.723 435.529 199.741 442.113 199.741 L 465.265 199.741 C 468.386 199.741 471.346 201.127 473.343 203.524 L 473.61 203.844 C 475.607 206.241 478.567 207.627 481.688 207.627 L 504.709 207.627 C 509.828 207.627 514.202 211.312 515.072 216.356 L 524.591 271.563 C 525.699 277.99 520.75 283.865 514.228 283.865 L 453.943 283.865 C 448.883 283.865 444.54 280.261 443.607 275.288 L 431.777 212.194 Z" fill="#477A00"/><path d="M 431.777 212.194 C 430.564 205.723 435.529 199.741 442.113 199.741 L 465.265 199.741 C 468.386 199.741 471.346 201.127 473.343 203.524 L 473.61 203.844 C 475.607 206.241 478.567 207.627 481.688 207.627 L 504.709 207.627 C 509.828 207.627 514.202 211.312 515.072 216.356 L 524.591 271.563 C 525.699 277.99 520.75 283.865 514.228 283.865 L 453.943 283.865 C 448.883 283.865 444.54 280.261 443.607 275.288 L 431.777 212.194 Z" fill="white" fill-opacity="0.5"/><path d="M 431.777 212.194 C 430.564 205.723 435.529 199.741 442.113 199.741 L 465.265 199.741 C 468.386 199.741 471.346 201.127 473.343 203.524 L 473.61 203.844 C 475.607 206.241 478.567 207.627 481.688 207.627 L 504.709 207.627 C 509.828 207.627 514.202 211.312 515.072 216.356 L 524.591 271.563 C 525.699 277.99 520.75 283.865 514.228 283.865 L 453.943 283.865 C 448.883 283.865 444.54 280.261 443.607 275.288 L 431.777 212.194 Z" fill="url(#gradient-11)" fill-opacity="0.5"/><path d="M 431.777 212.194 C 430.564 205.723 435.529 199.741 442.113 199.741 L 465.265 199.741 C 468.386 199.741 471.346 201.127 473.343 203.524 L 473.61 203.844 C 475.607 206.241 478.567 207.627 481.688 207.627 L 504.709 207.627 C 509.828 207.627 514.202 211.312 515.072 216.356 L 524.591 271.563 C 525.699 277.99 520.75 283.865 514.228 283.865 L 453.943 283.865 C 448.883 283.865 444.54 280.261 443.607 275.288 L 431.777 212.194 Z" stroke="#477A00" stroke-width="1.5"/><path d="M 453.618 233.778 C 454.866 229.203 459.021 226.03 463.763 226.03 L 526.089 226.03 C 533.022 226.03 538.058 232.623 536.234 239.312 L 526.196 276.117 C 524.948 280.692 520.793 283.865 516.051 283.865 L 453.726 283.865 C 446.792 283.865 441.756 277.272 443.58 270.583 L 453.618 233.778 Z" fill="#F4FBF2"/><path d="M -62.608 -113.2 C -61.682 -117.06 -58.597 -119.74 -55.076 -119.74 L -8.8 -119.74 C -3.653 -119.74 0.087 -114.18 -1.268 -108.53 L -9.322 -82.277 C -9.35 -78.415 -14.437 -72.73 -18.658 -72.73 L -62.528 -70.926 C -67.677 -70.926 -71.416 -76.491 -70.061 -82.136 L -62.608 -113.2 Z" fill="url(#gradient-12)" style="fill-opacity: 0.25;"/><path d="M 453.618 233.778 C 454.866 229.203 459.021 226.03 463.763 226.03 L 526.089 226.03 C 533.022 226.03 538.058 232.623 536.234 239.312 L 526.196 276.117 C 524.948 280.692 520.793 283.865 516.051 283.865 L 453.726 283.865 C 446.792 283.865 441.756 277.272 443.58 270.583 L 453.618 233.778 Z" stroke="#477A00" stroke-width="1.5"/><path d="M 292.971 201.32 C 291.758 194.849 296.723 188.867 303.307 188.867 L 326.459 188.867 C 329.58 188.867 332.54 190.253 334.537 192.65 L 334.804 192.97 C 336.801 195.367 339.761 196.753 342.882 196.753 L 365.903 196.753 C 371.022 196.753 375.396 200.438 376.266 205.482 L 385.785 260.689 C 386.893 267.116 381.944 272.991 375.422 272.991 L 315.137 272.991 C 310.077 272.991 305.734 269.387 304.801 264.414 L 292.971 201.32 Z" fill="#0069CC"/><path d="M 292.971 201.32 C 291.758 194.849 296.723 188.867 303.307 188.867 L 326.459 188.867 C 329.58 188.867 332.54 190.253 334.537 192.65 L 334.804 192.97 C 336.801 195.367 339.761 196.753 342.882 196.753 L 365.903 196.753 C 371.022 196.753 375.396 200.438 376.266 205.482 L 385.785 260.689 C 386.893 267.116 381.944 272.991 375.422 272.991 L 315.137 272.991 C 310.077 272.991 305.734 269.387 304.801 264.414 L 292.971 201.32 Z" fill="white" fill-opacity="0.5"/><path d="M 292.971 201.32 C 291.758 194.849 296.723 188.867 303.307 188.867 L 326.459 188.867 C 329.58 188.867 332.54 190.253 334.537 192.65 L 334.804 192.97 C 336.801 195.367 339.761 196.753 342.882 196.753 L 365.903 196.753 C 371.022 196.753 375.396 200.438 376.266 205.482 L 385.785 260.689 C 386.893 267.116 381.944 272.991 375.422 272.991 L 315.137 272.991 C 310.077 272.991 305.734 269.387 304.801 264.414 L 292.971 201.32 Z" fill="url(#gradient-13)" fill-opacity="0.5"/><path d="M 292.971 201.32 C 291.758 194.849 296.723 188.867 303.307 188.867 L 326.459 188.867 C 329.58 188.867 332.54 190.253 334.537 192.65 L 334.804 192.97 C 336.801 195.367 339.761 196.753 342.882 196.753 L 365.903 196.753 C 371.022 196.753 375.396 200.438 376.266 205.482 L 385.785 260.689 C 386.893 267.116 381.944 272.991 375.422 272.991 L 315.137 272.991 C 310.077 272.991 305.734 269.387 304.801 264.414 L 292.971 201.32 Z" stroke="#0069CC" stroke-width="1.5"/><path d="M 314.812 222.904 C 316.06 218.329 320.215 215.156 324.957 215.156 L 387.283 215.156 C 394.216 215.156 399.252 221.749 397.428 228.438 L 387.39 265.243 C 386.142 269.818 381.987 272.991 377.245 272.991 L 314.92 272.991 C 307.986 272.991 302.95 266.398 304.774 259.709 L 314.812 222.904 Z" fill="#F2F9FF"/><path d="M 104.286 -21.129 C 106.325 -24.659 114.635 -25.236 118.068 -24.986 L 159.253 -23.479 C 164.274 -23.129 164.03 -15.452 161.05 -10.302 L 151.997 18.012 C 149.959 21.532 145.035 23.239 141.602 22.996 L 95.336 22.056 C 90.315 21.7 92.254 14.585 95.233 9.439 L 104.286 -21.129 Z" fill="url(#gradient-14)" style="fill-opacity: 0.25; transform-origin: 129.836px -0.994px;"/><path d="M 314.812 222.904 C 316.06 218.329 320.215 215.156 324.957 215.156 L 387.283 215.156 C 394.216 215.156 399.252 221.749 397.428 228.438 L 387.39 265.243 C 386.142 269.818 381.987 272.991 377.245 272.991 L 314.92 272.991 C 307.986 272.991 302.95 266.398 304.774 259.709 L 314.812 222.904 Z" stroke="#0069CC" stroke-width="1.5"/><path d="M 224.528 47.802 C 223.315 41.331 228.28 35.349 234.864 35.349 L 258.016 35.349 C 261.137 35.349 264.097 36.735 266.094 39.132 L 266.361 39.452 C 268.358 41.849 271.318 43.235 274.439 43.235 L 297.46 43.235 C 302.579 43.235 306.953 46.92 307.823 51.964 L 317.342 107.171 C 318.45 113.598 313.501 119.473 306.979 119.473 L 246.694 119.473 C 241.634 119.473 237.291 115.869 236.358 110.896 L 224.528 47.802 Z" fill="#5E6A77"/><path d="M 224.528 47.802 C 223.315 41.331 228.28 35.349 234.864 35.349 L 258.016 35.349 C 261.137 35.349 264.097 36.735 266.094 39.132 L 266.361 39.452 C 268.358 41.849 271.318 43.235 274.439 43.235 L 297.46 43.235 C 302.579 43.235 306.953 46.92 307.823 51.964 L 317.342 107.171 C 318.45 113.598 313.501 119.473 306.979 119.473 L 246.694 119.473 C 241.634 119.473 237.291 115.869 236.358 110.896 L 224.528 47.802 Z" fill="white" fill-opacity="0.5"/><path d="M 224.528 47.802 C 223.315 41.331 228.28 35.349 234.864 35.349 L 258.016 35.349 C 261.137 35.349 264.097 36.735 266.094 39.132 L 266.361 39.452 C 268.358 41.849 271.318 43.235 274.439 43.235 L 297.46 43.235 C 302.579 43.235 306.953 46.92 307.823 51.964 L 317.342 107.171 C 318.45 113.598 313.501 119.473 306.979 119.473 L 246.694 119.473 C 241.634 119.473 237.291 115.869 236.358 110.896 L 224.528 47.802 Z" fill="url(#gradient-15)" fill-opacity="0.5"/><path d="M 224.528 47.802 C 223.315 41.331 228.28 35.349 234.864 35.349 L 258.016 35.349 C 261.137 35.349 264.097 36.735 266.094 39.132 L 266.361 39.452 C 268.358 41.849 271.318 43.235 274.439 43.235 L 297.46 43.235 C 302.579 43.235 306.953 46.92 307.823 51.964 L 317.342 107.171 C 318.45 113.598 313.501 119.473 306.979 119.473 L 246.694 119.473 C 241.634 119.473 237.291 115.869 236.358 110.896 L 224.528 47.802 Z" stroke="#5E6A77" stroke-width="1.5"/><path d="M 246.369 69.386 C 247.617 64.811 251.772 61.638 256.514 61.638 L 318.84 61.638 C 325.773 61.638 330.809 68.231 328.985 74.92 L 318.947 111.725 C 317.699 116.3 313.544 119.473 308.802 119.473 L 246.477 119.473 C 239.543 119.473 234.507 112.88 236.331 106.191 L 246.369 69.386 Z" fill="#F2F9FF"/><path d="M 246.369 69.386 C 247.617 64.811 251.772 61.638 256.514 61.638 L 318.84 61.638 C 325.773 61.638 330.809 68.231 328.985 74.92 L 318.947 111.725 C 317.699 116.3 313.544 119.473 308.802 119.473 L 246.477 119.473 C 239.543 119.473 234.507 112.88 236.331 106.191 L 246.369 69.386 Z" fill="url(#gradient-16)" fill-opacity="0.15"/><path d="M 246.369 69.386 C 247.617 64.811 251.772 61.638 256.514 61.638 L 318.84 61.638 C 325.773 61.638 330.809 68.231 328.985 74.92 L 318.947 111.725 C 317.699 116.3 313.544 119.473 308.802 119.473 L 246.477 119.473 C 239.543 119.473 234.507 112.88 236.331 106.191 L 246.369 69.386 Z" stroke="#5E6A77" stroke-width="1.5"/></svg>